<?xml version="1.0" standalone="no"?>
<!DOCTYPE svg PUBLIC "-//W3C//DTD SVG 20010904//EN"
 "http://www.w3.org/TR/2001/REC-SVG-20010904/DTD/svg10.dtd">
<svg version="1.0" xmlns="http://www.w3.org/2000/svg"
 width="768.000000pt" height="768.000000pt" viewBox="0 0 768.000000 768.000000"
 preserveAspectRatio="xMidYMid meet">
<metadata>
Created by potrace 1.11, written by Peter Selinger 2001-2013
</metadata>
<g transform="translate(0.000000,768.000000) scale(0.100000,-0.100000)"
fill="#000000" stroke="none">
<path d="M3532 7213 l-304 -176 71 -18 c223 -57 403 -238 461 -465 102 -397
-208 -794 -620 -794 -119 0 -271 46 -360 110 -24 17 -29 18 -34 5 -8 -23 -46
-19 -46 4 0 11 5 23 10 26 6 4 -14 33 -45 68 -69 75 -128 191 -151 293 -21 95
-15 234 13 317 11 31 18 57 16 57 -2 0 -333 -190 -736 -422 -403 -232 -803
-462 -889 -512 l-158 -90 1 -1121 0 -1120 479 485 478 485 24 -30 c12 -16 36
-43 51 -60 l28 -30 -6 238 -7 237 161 0 c185 0 221 -10 262 -77 35 -57 32
-157 -7 -220 -39 -63 -105 -100 -196 -109 l-68 -7 0 -83 0 -84 -32 0 c-30 0
-31 0 -13 -20 10 -11 22 -20 26 -20 5 0 85 62 179 137 l170 137 0 92 0 92 70
4 69 3 3 -37 3 -36 325 264 c179 145 328 262 332 261 4 -1 102 -77 218 -169
116 -93 214 -168 218 -168 4 0 189 252 412 559 223 308 407 560 410 560 3 0
212 -245 465 -545 422 -500 460 -543 465 -517 5 27 7 28 79 31 l74 3 -7 -112
c-7 -108 -7 -112 19 -150 14 -21 27 -39 30 -39 2 0 16 20 31 45 l26 45 75 0
75 0 -18 -27 c-9 -16 -37 -58 -62 -95 l-44 -66 78 -91 c42 -50 79 -89 82 -87
2 3 4 86 3 185 l-1 181 65 0 c36 0 68 0 72 0 3 0 7 -94 7 -210 l1 -209 -52 -3
-52 -3 114 -135 c63 -74 119 -135 124 -135 6 0 28 26 51 58 23 31 36 57 31 57
-6 0 -11 9 -11 21 0 17 4 20 23 15 17 -4 27 2 47 31 14 20 23 46 22 58 -2 14
3 25 14 29 21 8 46 -12 39 -33 -3 -12 25 -32 112 -81 63 -36 127 -71 142 -78
14 -7 96 -53 181 -102 85 -48 157 -84 158 -79 2 5 8 9 14 9 6 0 8 -6 5 -14 -4
-10 9 -23 40 -40 25 -14 47 -26 49 -26 2 0 4 438 4 973 l0 973 -27 15 c-259
149 -1712 986 -1778 1024 -200 117 -1274 735 -1277 735 -2 -1 -140 -80 -306
-177z m318 -93 c0 -5 -5 -10 -11 -10 -5 0 -7 5 -4 10 3 6 8 10 11 10 2 0 4 -4
4 -10z m-270 -10 c0 -5 -4 -10 -10 -10 -5 0 -10 5 -10 10 0 6 5 10 10 10 6 0
10 -4 10 -10z m580 -310 c0 -5 -4 -10 -10 -10 -5 0 -10 5 -10 10 0 6 5 10 10
10 6 0 10 -4 10 -10z m-366 -151 c-3 -5 -10 -7 -15 -3 -5 3 -7 10 -3 15 3 5
10 7 15 3 5 -3 7 -10 3 -15z m556 -139 c0 -5 -4 -10 -10 -10 -5 0 -10 5 -10
10 0 6 5 10 10 10 6 0 10 -4 10 -10z m430 -16 c0 -8 -5 -12 -10 -9 -6 4 -8 11
-5 16 9 14 15 11 15 -7z m160 -124 c0 -5 -4 -10 -10 -10 -5 0 -10 5 -10 10 0
6 5 10 10 10 6 0 10 -4 10 -10z m-2680 -64 c0 -8 -5 -18 -11 -22 -14 -8 -33
11 -25 25 10 16 36 13 36 -3z m1570 4 c0 -5 -4 -10 -10 -10 -5 0 -10 5 -10 10
0 6 5 10 10 10 6 0 10 -4 10 -10z m1260 -50 c0 -5 -4 -10 -10 -10 -5 0 -10 5
-10 10 0 6 5 10 10 10 6 0 10 -4 10 -10z m540 -70 c0 -5 -4 -10 -10 -10 -5 0
-10 5 -10 10 0 6 5 10 10 10 6 0 10 -4 10 -10z m-3150 -10 c0 -5 -5 -10 -11
-10 -5 0 -7 5 -4 10 3 6 8 10 11 10 2 0 4 -4 4 -10z m2880 0 c0 -5 -4 -10 -10
-10 -5 0 -10 5 -10 10 0 6 5 10 10 10 6 0 10 -4 10 -10z m-260 -15 c0 -8 -9
-15 -20 -15 -11 0 -20 7 -20 15 0 8 9 15 20 15 11 0 20 -7 20 -15z m-3070 -55
c0 -5 -4 -10 -10 -10 -5 0 -10 5 -10 10 0 6 5 10 10 10 6 0 10 -4 10 -10z
m3444 -117 c4 -9 0 -23 -9 -32 -13 -14 -17 -14 -31 1 -9 9 -14 24 -11 32 8 21
43 20 51 -1z m491 -42 c3 -5 1 -12 -5 -16 -5 -3 -10 1 -10 9 0 18 6 21 15 7z
m-1295 -17 c0 -8 -4 -12 -10 -9 -5 3 -10 10 -10 16 0 5 5 9 10 9 6 0 10 -7 10
-16z m645 -24 c3 -5 -1 -10 -10 -10 -9 0 -13 5 -10 10 3 6 8 10 10 10 2 0 7
-4 10 -10z m-3850 -20 c3 -5 1 -10 -4 -10 -6 0 -11 5 -11 10 0 6 2 10 4 10 3
0 8 -4 11 -10z m255 -40 c0 -5 -4 -10 -10 -10 -5 0 -10 5 -10 10 0 6 5 10 10
10 6 0 10 -4 10 -10z m2910 -20 c0 -5 -2 -10 -4 -10 -3 0 -8 5 -11 10 -3 6 -1
10 4 10 6 0 11 -4 11 -10z m330 -11 c0 -5 -4 -9 -10 -9 -5 0 -10 7 -10 16 0 8
5 12 10 9 6 -3 10 -10 10 -16z m1160 -19 c0 -5 -4 -10 -10 -10 -5 0 -10 5 -10
10 0 6 5 10 10 10 6 0 10 -4 10 -10z m-3360 -15 c17 -20 5 -45 -20 -45 -11 0
-23 7 -26 15 -6 15 11 45 26 45 4 0 13 -7 20 -15z m-175 -5 c3 -5 -1 -10 -9
-10 -9 0 -16 5 -16 10 0 6 4 10 9 10 6 0 13 -4 16 -10z m2963 -23 c2 -12 -3
-17 -17 -17 -12 0 -21 6 -21 13 0 31 32 34 38 4z m-1628 4 c0 -6 -4 -13 -10
-16 -5 -3 -10 1 -10 9 0 9 5 16 10 16 6 0 10 -4 10 -9z m-900 -130 c0 -6 -4
-13 -10 -16 -5 -3 -10 1 -10 9 0 9 5 16 10 16 6 0 10 -4 10 -9z m1660 -21 c0
-5 -4 -10 -10 -10 -5 0 -10 5 -10 10 0 6 5 10 10 10 6 0 10 -4 10 -10z m308
-13 c4 -20 -25 -34 -40 -19 -15 15 -1 44 19 40 10 -2 19 -11 21 -21z m-2510
-15 c3 -16 -2 -22 -17 -22 -24 0 -35 15 -27 36 9 23 40 13 44 -14z m1182 8 c0
-5 -4 -10 -10 -10 -5 0 -10 5 -10 10 0 6 5 10 10 10 6 0 10 -4 10 -10z m-130
-10 c0 -5 -4 -10 -10 -10 -5 0 -10 5 -10 10 0 6 5 10 10 10 6 0 10 -4 10 -10z
m430 -36 c0 -14 -21 -19 -33 -7 -9 9 13 34 24 27 5 -3 9 -12 9 -20z m1550 -4
c0 -5 -4 -10 -10 -10 -5 0 -10 5 -10 10 0 6 5 10 10 10 6 0 10 -4 10 -10z
m-2095 -21 c0 -7 -8 -15 -17 -17 -18 -3 -25 18 -11 32 10 10 28 1 28 -15z
m3235 17 c0 -11 -19 -15 -25 -6 -3 5 1 10 9 10 9 0 16 -2 16 -4z m-1510 -16
c0 -5 -7 -10 -16 -10 -8 0 -12 5 -9 10 3 6 10 10 16 10 5 0 9 -4 9 -10z
m-3485 -19 c3 -5 1 -12 -5 -16 -5 -3 -10 1 -10 9 0 18 6 21 15 7z m4085 -1 c0
-5 -4 -10 -10 -10 -5 0 -10 5 -10 10 0 6 5 10 10 10 6 0 10 -4 10 -10z m337
-6 c8 -21 -19 -46 -40 -38 -17 6 -23 35 -10 47 12 13 44 7 50 -9z m-4641 -41
c-10 -10 -19 5 -10 18 6 11 8 11 12 0 2 -7 1 -15 -2 -18z m4450 -24 c10 -17
-13 -36 -27 -22 -12 12 -4 33 11 33 5 0 12 -5 16 -11z m989 -37 c-12 -13 -24
22 -12 37 10 12 13 11 15 -8 2 -13 1 -26 -3 -29z m-5508 12 c3 -8 -2 -23 -11
-32 -15 -15 -17 -15 -32 0 -21 21 -11 48 16 48 11 0 23 -7 27 -16z m833 -34
c0 -5 -4 -10 -10 -10 -5 0 -10 5 -10 10 0 6 5 10 10 10 6 0 10 -4 10 -10z
m1250 -70 c0 -5 -4 -10 -10 -10 -5 0 -10 5 -10 10 0 6 5 10 10 10 6 0 10 -4
10 -10z m2920 -10 c0 -5 -2 -10 -4 -10 -3 0 -8 5 -11 10 -3 6 -1 10 4 10 6 0
11 -4 11 -10z m-1256 -61 c-3 -5 -10 -7 -15 -3 -5 3 -7 10 -3 15 3 5 10 7 15
3 5 -3 7 -10 3 -15z m-1944 -19 c0 -5 -2 -10 -4 -10 -3 0 -8 5 -11 10 -3 6 -1
10 4 10 6 0 11 -4 11 -10z m2178 -13 c2 -12 -3 -17 -17 -17 -12 0 -21 6 -21
13 0 31 32 34 38 4z m772 3 c0 -5 -2 -10 -4 -10 -3 0 -8 5 -11 10 -3 6 -1 10
4 10 6 0 11 -4 11 -10z m-4770 -45 c0 -8 -4 -15 -10 -15 -5 0 -10 7 -10 15 0
8 5 15 10 15 6 0 10 -7 10 -15z m815 5 c-3 -5 -10 -10 -16 -10 -5 0 -9 5 -9
10 0 6 7 10 16 10 8 0 12 -4 9 -10z m-498 -36 c-9 -9 -28 6 -21 18 4 6 10 6
17 -1 6 -6 8 -13 4 -17z m797 5 c-3 -5 -10 -7 -15 -3 -5 3 -7 10 -3 15 3 5 10
7 15 3 5 -3 7 -10 3 -15z m1310 -34 c8 -23 -4 -45 -25 -45 -11 0 -22 7 -25 15
-9 23 3 45 25 45 10 0 21 -7 25 -15z m2231 -5 c0 -22 -29 -18 -33 3 -3 14 1
18 15 15 10 -2 18 -10 18 -18z m-685 -20 c0 -5 -4 -10 -10 -10 -5 0 -10 5 -10
10 0 6 5 10 10 10 6 0 10 -4 10 -10z m-3686 -9 c10 -16 -5 -41 -24 -41 -23 0
-34 16 -26 35 6 16 42 20 50 6z m-634 -21 c0 -5 -7 -10 -16 -10 -8 0 -12 5 -9
10 3 6 10 10 16 10 5 0 9 -4 9 -10z m960 -20 c0 -5 -4 -10 -10 -10 -5 0 -10 5
-10 10 0 6 5 10 10 10 6 0 10 -4 10 -10z m16 -61 c10 -17 -13 -36 -27 -22 -12
12 -4 33 11 33 5 0 12 -5 16 -11z m3624 -19 c0 -5 -4 -10 -10 -10 -5 0 -10 5
-10 10 0 6 5 10 10 10 6 0 10 -4 10 -10z m914 -11 c-3 -5 -10 -7 -15 -3 -5 3
-7 10 -3 15 3 5 10 7 15 3 5 -3 7 -10 3 -15z m-106 -32 c2 -10 -3 -17 -12 -17
-18 0 -29 16 -21 31 9 14 29 6 33 -14z m-2868 -27 c0 -5 -4 -10 -10 -10 -5 0
-10 5 -10 10 0 6 5 10 10 10 6 0 10 -4 10 -10z m3090 -20 c0 -5 -4 -10 -10
-10 -5 0 -10 5 -10 10 0 6 5 10 10 10 6 0 10 -4 10 -10z m-3025 -50 c-3 -5
-10 -10 -16 -10 -5 0 -9 5 -9 10 0 6 7 10 16 10 8 0 12 -4 9 -10z m-1115 -10
c0 -5 -4 -10 -10 -10 -5 0 -10 5 -10 10 0 6 5 10 10 10 6 0 10 -4 10 -10z
m3670 6 c0 -3 -4 -8 -10 -11 -5 -3 -10 -1 -10 4 0 6 5 11 10 11 6 0 10 -2 10
-4z m-4800 -16 c0 -5 -4 -10 -10 -10 -5 0 -10 5 -10 10 0 6 5 10 10 10 6 0 10
-4 10 -10z m1059 -46 c12 -15 21 -37 21 -49 0 -12 -9 -34 -21 -49 -16 -20 -29
-26 -59 -26 -49 0 -70 21 -70 71 0 50 27 79 74 79 25 0 40 -7 55 -26z m3431 6
c12 -12 20 -33 20 -55 0 -47 -29 -75 -77 -75 -48 0 -73 24 -73 68 0 71 82 110
130 62z m-3170 -46 c0 -8 -4 -12 -10 -9 -5 3 -10 10 -10 16 0 5 5 9 10 9 6 0
10 -7 10 -16z m3225 6 c3 -5 -1 -10 -10 -10 -9 0 -13 5 -10 10 3 6 8 10 10 10
2 0 7 -4 10 -10z m-4385 -10 c0 -5 -4 -10 -10 -10 -5 0 -10 5 -10 10 0 6 5 10
10 10 6 0 10 -4 10 -10z m160 -90 c0 -5 -4 -10 -10 -10 -5 0 -10 5 -10 10 0 6
5 10 10 10 6 0 10 -4 10 -10z m4840 -120 c0 -5 -7 -10 -15 -10 -8 0 -15 5 -15
10 0 6 7 10 15 10 8 0 15 -4 15 -10z m-566 -31 c-3 -5 -10 -7 -15 -3 -5 3 -7
10 -3 15 3 5 10 7 15 3 5 -3 7 -10 3 -15z m-4789 -38 c3 -5 1 -12 -5 -16 -5
-3 -10 1 -10 9 0 18 6 21 15 7z m395 -81 c0 -11 -6 -20 -14 -20 -18 0 -29 16
-21 30 11 18 35 11 35 -10z m-490 -60 c0 -5 -4 -10 -9 -10 -6 0 -13 5 -16 10
-3 6 1 10 9 10 9 0 16 -4 16 -10z m64 -33 c16 -25 -16 -56 -38 -37 -19 15 -20
32 -4 48 15 15 28 11 42 -11z m256 -36 c0 -6 -4 -13 -10 -16 -5 -3 -10 1 -10
9 0 9 5 16 10 16 6 0 10 -4 10 -9z m5024 -92 c-3 -5 -10 -7 -15 -3 -5 3 -7 10
-3 15 3 5 10 7 15 3 5 -3 7 -10 3 -15z m-459 -19 c0 -18 -6 -26 -23 -28 -13
-2 -25 3 -28 12 -10 26 4 48 28 44 17 -2 23 -10 23 -28z m755 -60 c0 -5 -4
-10 -10 -10 -5 0 -10 5 -10 10 0 6 5 10 10 10 6 0 10 -4 10 -10z m-69 -93 c-1
-12 -15 -9 -19 4 -3 6 1 10 8 8 6 -3 11 -8 11 -12z m-5626 -37 c3 -5 -1 -10
-10 -10 -9 0 -13 5 -10 10 3 6 8 10 10 10 2 0 7 -4 10 -10z m-155 -336 c0 -15
-9 -17 -34 -8 -21 8 -20 22 2 27 22 5 32 -1 32 -19z"/>
<path d="M1960 4501 l0 -90 33 -3 c47 -5 83 16 97 57 25 74 -11 125 -87 125
l-43 0 0 -89z"/>
<path d="M4090 3752 c0 -115 2 -211 5 -214 3 -3 17 -3 30 0 l25 4 0 209 0 209
-30 0 -30 0 0 -208z"/>
<path d="M1840 3770 l0 -130 85 0 85 0 0 28 c0 26 -2 27 -47 27 -42 0 -48 3
-51 23 -3 20 1 22 37 22 39 0 41 2 41 30 0 28 -2 30 -40 30 -33 0 -40 3 -40
20 0 17 7 20 49 20 42 0 49 3 54 22 3 12 4 25 1 30 -3 4 -43 8 -90 8 l-84 0 0
-130z"/>
<path d="M4483 3878 c-48 -53 -35 -101 37 -138 51 -26 55 -55 8 -46 -72 13
-73 13 -73 -18 0 -24 5 -31 30 -38 108 -30 193 70 115 135 -16 14 -39 29 -51
32 -12 4 -19 13 -17 23 4 17 25 19 64 7 18 -5 22 -2 27 22 7 35 -5 43 -69 43
-40 0 -55 -5 -71 -22z"/>
<path d="M2140 3745 l0 -105 29 0 c27 0 30 3 33 37 l3 37 29 -42 c25 -36 32
-41 55 -35 42 10 43 13 13 51 -45 58 -45 59 -13 106 17 25 31 47 31 50 0 3
-13 6 -29 6 -21 0 -37 -10 -60 -37 l-30 -38 -1 38 c0 34 -2 37 -30 37 l-30 0
0 -105z"/>
<path d="M2449 3843 c0 -5 -1 -52 -2 -105 l-2 -98 33 0 32 0 0 105 0 105 -30
0 c-16 0 -30 -3 -31 -7z"/>
<path d="M2650 3746 l0 -103 38 -6 c44 -7 109 6 129 26 22 22 32 83 21 123
-12 44 -53 64 -133 64 l-55 0 0 -104z m120 23 c6 -11 8 -33 5 -50 -5 -24 -12
-29 -36 -29 -28 0 -29 2 -29 43 0 24 3 47 7 50 13 14 43 6 53 -14z"/>
<path d="M3011 3836 c-32 -18 -50 -53 -51 -99 0 -51 15 -76 57 -93 70 -30 137
7 149 81 14 95 -73 157 -155 111z m85 -71 c3 -14 3 -37 0 -51 -5 -20 -12 -25
-34 -22 -23 2 -28 8 -30 36 -5 47 3 62 32 62 19 0 27 -7 32 -25z"/>
<path d="M3270 3843 c0 -5 13 -30 29 -57 l29 -49 -30 -46 -29 -46 28 -3 c20
-3 34 3 50 22 l22 26 17 -25 c13 -20 25 -25 55 -25 l39 0 -32 52 -32 52 27 48
c15 26 27 50 27 53 0 3 -13 5 -29 5 -20 0 -34 -8 -45 -25 -9 -14 -20 -25 -25
-25 -4 0 -13 11 -19 25 -9 20 -19 25 -47 25 -19 0 -35 -3 -35 -7z"/>
<path d="M3590 3844 c0 -4 14 -29 31 -56 l30 -50 -30 -47 -31 -46 31 -3 c21
-2 35 3 49 20 l20 23 19 -22 c13 -16 30 -23 56 -23 l37 0 -23 38 c-13 20 -27
44 -33 54 -7 12 -3 26 17 57 34 51 34 61 -2 61 -20 0 -34 -8 -46 -27 l-18 -27
-21 27 c-16 19 -31 27 -54 27 -18 0 -32 -3 -32 -6z"/>
<path d="M4804 3840 c-55 -22 -74 -122 -34 -173 47 -60 153 -37 178 37 32 99
-49 175 -144 136z m77 -74 c7 -14 9 -36 5 -51 -5 -21 -12 -26 -34 -23 -23 2
-28 8 -30 36 -2 19 -1 40 2 48 9 23 45 16 57 -10z"/>
<path d="M5080 3746 l0 -106 29 0 c23 0 30 6 38 33 l10 32 22 -37 c20 -33 27
-37 49 -32 37 9 37 10 17 48 -15 28 -16 37 -6 50 18 21 17 75 -2 94 -12 11
-39 18 -87 20 l-70 4 0 -106z m98 26 c2 -15 -2 -22 -12 -22 -11 0 -16 9 -16
26 0 31 23 28 28 -4z"/>
<path d="M5390 3745 l0 -105 75 0 c73 0 75 1 75 25 0 23 -4 25 -45 25 -53 0
-60 15 -10 24 29 6 35 11 35 31 0 22 -5 25 -35 25 -19 0 -35 5 -35 10 0 6 20
10 45 10 43 0 45 1 45 30 l0 30 -75 0 -75 0 0 -105z"/>
<path d="M5666 3842 c-7 -12 0 -150 9 -174 11 -28 75 -43 119 -28 48 16 56 34
56 129 l0 81 -30 0 -29 0 -3 -77 c-3 -76 -4 -78 -30 -81 l-27 -3 -3 78 c-3 76
-4 78 -30 81 -14 2 -29 -1 -32 -6z"/>
<path d="M3214 3027 c-19 -17 -27 -33 -26 -55 1 -29 -1 -30 -24 -20 -46 21
-49 2 -21 -149 15 -76 29 -154 32 -173 5 -26 0 -50 -19 -90 -14 -30 -21 -57
-16 -60 5 -3 1 -33 -10 -69 -25 -80 -25 -88 2 -65 18 16 20 16 15 2 -3 -9 -11
-52 -17 -97 -12 -79 -9 -118 9 -107 4 3 13 -26 20 -65 12 -72 41 -144 49 -121
2 7 15 -10 29 -38 33 -66 113 -134 97 -82 -5 16 -5 16 9 -1 8 -10 22 -48 32
-85 9 -37 36 -102 61 -145 36 -62 46 -90 51 -141 5 -61 -11 -210 -26 -234 -5
-9 -23 -9 -68 0 l-62 11 -189 -87 c-181 -83 -192 -90 -261 -160 -56 -56 -72
-79 -69 -97 2 -19 88 -72 503 -312 275 -159 507 -291 516 -294 23 -7 979 546
992 574 8 17 4 34 -16 76 -35 74 -55 144 -73 257 -15 95 -15 95 -64 138 -27
23 -51 50 -54 60 -2 9 -8 28 -11 42 -6 19 11 7 71 -51 44 -42 89 -81 102 -88
22 -12 23 -11 13 8 -16 30 -15 30 40 3 62 -31 154 -40 210 -22 43 15 73 40 46
40 -9 0 9 24 42 55 64 60 131 166 93 146 -24 -13 -45 -15 -38 -3 2 4 14 33 26
63 l21 54 -58 -57 c-112 -110 -215 -127 -296 -50 -31 29 -67 95 -116 213 -17
42 -44 87 -59 101 -43 40 -291 165 -413 209 -178 63 -283 120 -398 218 -46 38
-51 46 -35 52 15 5 9 9 -26 18 -113 29 -198 91 -240 175 l-20 41 45 3 45 3
-73 72 c-51 49 -79 87 -91 118 -15 38 -27 52 -66 73 -59 32 -121 98 -155 165
-14 28 -27 51 -30 51 -2 0 -16 -11 -31 -23z m453 -1429 c17 -18 25 -44 33
-113 15 -134 13 -251 -6 -290 l-15 -33 -57 16 c-31 8 -58 16 -58 16 -1 1 4 30
12 66 7 36 19 136 26 222 13 170 14 171 65 116z m384 -60 c6 -24 19 -82 29
-130 10 -48 22 -93 26 -100 24 -41 94 -112 145 -149 53 -39 59 -47 59 -79 0
-19 -3 -45 -6 -57 -5 -19 -9 -20 -32 -12 -14 6 -67 9 -117 8 -88 -3 -93 -2
-225 51 -74 30 -136 55 -138 56 -1 1 6 25 18 53 15 38 20 76 21 144 0 100 11
223 21 232 3 4 23 -1 43 -9 49 -21 58 -20 45 3 -11 21 1 27 67 30 30 1 33 -2
44 -41z m470 -285 c42 -28 70 -76 133 -229 41 -100 44 -115 35 -144 -10 -28
-15 -31 -38 -25 -40 10 -234 84 -243 93 -4 4 -1 32 7 61 25 95 29 155 11 170
-15 13 -26 44 -41 119 l-7 33 53 -27 c29 -14 69 -37 90 -51z"/>
<path d="M6893 2075 l-23 -35 25 12 c16 7 25 19 25 35 0 12 -1 23 -2 23 -2 0
-13 -16 -25 -35z"/>
<path d="M760 2083 c0 -11 7 -23 15 -27 19 -7 19 3 0 28 -15 19 -15 19 -15 -1z"/>
</g>
</svg>
