<?xml version="1.0" standalone="no"?>
<!DOCTYPE svg PUBLIC "-//W3C//DTD SVG 20010904//EN"
 "http://www.w3.org/TR/2001/REC-SVG-20010904/DTD/svg10.dtd">
<svg version="1.0" xmlns="http://www.w3.org/2000/svg"
 width="768.000000pt" height="768.000000pt" viewBox="0 0 768.000000 768.000000"
 preserveAspectRatio="xMidYMid meet">
<metadata>
Created by potrace 1.11, written by Peter Selinger 2001-2013
</metadata>
<g transform="translate(0.000000,768.000000) scale(0.100000,-0.100000)"
fill="#000000" stroke="none">
<path d="M3541 7221 c-162 -94 -298 -174 -303 -179 -5 -5 15 -14 49 -21 230
-50 429 -252 478 -486 79 -377 -189 -739 -571 -771 -138 -11 -284 24 -399 97
-45 28 -48 29 -60 12 -12 -15 -16 -16 -27 -4 -11 11 -10 15 4 24 14 9 9 19
-42 74 -71 78 -135 202 -156 303 -20 93 -14 219 15 310 11 35 19 65 18 66 -1
0 -404 -231 -894 -514 l-893 -514 0 -1123 0 -1122 478 482 477 483 25 -27 c14
-14 38 -42 53 -61 l29 -35 -7 243 -7 242 156 0 c111 0 166 -4 189 -14 104 -44
134 -188 62 -298 -31 -47 -110 -86 -192 -94 l-63 -7 0 -83 0 -84 -32 0 -31 0
22 -24 23 -24 174 140 174 141 0 93 0 92 70 4 69 3 3 -39 3 -39 65 54 c36 31
183 151 328 268 l262 212 220 -175 220 -176 406 560 c224 308 410 560 415 560
6 0 726 -846 901 -1058 l27 -32 3 32 3 33 74 3 73 3 -7 -119 -7 -119 30 -34
30 -34 19 33 c35 64 33 63 111 60 l72 -3 -61 -92 -61 -92 31 -38 c18 -21 53
-64 79 -95 25 -31 48 -55 50 -53 2 2 4 86 5 187 l2 183 70 3 70 3 0 -210 0
-210 -54 -3 -53 -3 118 -137 c64 -76 120 -138 124 -138 4 0 26 26 48 58 31 45
38 62 30 70 -9 9 -9 15 0 24 10 10 15 10 21 -1 11 -17 70 66 68 95 -1 13 4 19
18 19 13 0 20 -7 20 -19 0 -13 36 -39 130 -92 72 -41 134 -74 139 -74 5 0 17
-6 25 -14 9 -8 79 -49 156 -91 77 -43 168 -95 203 -116 l62 -39 0 979 0 979
-842 485 c-464 267 -862 496 -884 508 -23 13 -331 191 -686 396 -354 205 -651
375 -659 378 -8 3 -143 -69 -308 -164z m1554 -1050 c7 -12 -12 -24 -25 -16
-11 7 -4 25 10 25 5 0 11 -4 15 -9z m375 -176 c15 -18 5 -35 -20 -35 -10 0
-22 5 -25 10 -7 11 12 40 25 40 4 0 13 -7 20 -15z m-2710 -224 c0 -27 -19 -36
-37 -18 -18 18 -9 37 18 37 12 0 19 -7 19 -19z m2790 -10 c0 -14 -18 -23 -30
-16 -6 4 -8 11 -5 16 8 12 35 12 35 0z m-2535 -131 c3 -5 1 -10 -4 -10 -6 0
-11 5 -11 10 0 6 2 10 4 10 3 0 8 -4 11 -10z m1971 -49 c-9 -14 -33 -14 -41
-1 -4 6 -1 18 6 26 11 13 14 13 27 0 8 -8 11 -19 8 -25z m-2506 4 c0 -9 -7
-18 -16 -22 -18 -7 -39 11 -30 26 11 17 46 13 46 -4z m1478 -37 c-6 -18 -28
-21 -28 -4 0 9 7 16 16 16 9 0 14 -5 12 -12z m-548 -34 c0 -17 -22 -14 -28 4
-2 7 3 12 12 12 9 0 16 -7 16 -16z m2660 -20 c11 -12 10 -18 -3 -31 -22 -23
-52 0 -36 28 12 23 22 24 39 3z m-4630 -34 c0 -5 -2 -10 -4 -10 -3 0 -8 5 -11
10 -3 6 -1 10 4 10 6 0 11 -4 11 -10z m4440 -34 c0 -8 -4 -17 -9 -21 -12 -7
-24 12 -16 25 9 15 25 12 25 -4z m-4520 -21 c15 -17 5 -35 -20 -35 -22 0 -33
23 -17 39 15 15 22 14 37 -4z m840 -35 c0 -5 -2 -10 -4 -10 -3 0 -8 5 -11 10
-3 6 -1 10 4 10 6 0 11 -4 11 -10z m3145 -169 c7 -12 -12 -24 -25 -16 -11 7
-4 25 10 25 5 0 11 -4 15 -9z m-1575 -107 c11 -12 10 -18 -3 -32 -16 -15 -18
-15 -34 0 -13 14 -14 20 -3 32 7 9 16 16 20 16 4 0 13 -7 20 -16z m2235 6 c3
-6 -1 -13 -10 -16 -19 -8 -30 0 -20 15 8 14 22 14 30 1z m-4378 -46 c3 -8 1
-20 -5 -26 -15 -15 -43 8 -35 28 7 19 32 18 40 -2z m344 -109 c-1 -15 -24 -12
-29 3 -3 9 2 13 12 10 10 -1 17 -7 17 -13z m4437 -47 c-6 -18 -28 -21 -28 -4
0 9 7 16 16 16 9 0 14 -5 12 -12z m-3991 -164 c20 -20 24 -31 19 -57 -9 -45
-33 -67 -74 -67 -47 0 -72 24 -72 68 0 74 75 108 127 56z m3430 4 c29 -27 31
-80 3 -108 -29 -29 -94 -27 -114 2 -23 33 -20 75 9 103 30 31 71 32 102 3z
m-4682 -327 c3 -5 1 -12 -5 -16 -5 -3 -10 1 -10 9 0 18 6 21 15 7z m390 -91
c-5 -8 -11 -8 -17 -2 -6 6 -7 16 -3 22 5 8 11 8 17 2 6 -6 7 -16 3 -22z m-485
-44 c0 -3 -4 -8 -10 -11 -5 -3 -10 -1 -10 4 0 6 5 11 10 11 6 0 10 -2 10 -4z
m65 -51 c0 -22 -31 -33 -47 -17 -17 17 -1 44 24 40 15 -2 23 -10 23 -23z
m4815 -120 c10 -12 10 -18 0 -30 -16 -20 -36 -19 -44 1 -6 16 9 44 24 44 4 0
13 -7 20 -15z m690 -165 c0 -5 -5 -10 -11 -10 -5 0 -7 5 -4 10 3 6 8 10 11 10
2 0 4 -4 4 -10z m-5800 -364 c0 -3 -4 -8 -10 -11 -5 -3 -10 -1 -10 4 0 6 5 11
10 11 6 0 10 -2 10 -4z"/>
<path d="M1960 4501 l0 -89 38 -4 c46 -6 77 13 91 54 16 46 13 72 -10 102 -17
22 -28 26 -70 26 l-49 0 0 -89z"/>
<path d="M3370 4485 c0 -8 2 -15 4 -15 2 0 6 7 10 15 3 8 1 15 -4 15 -6 0 -10
-7 -10 -15z"/>
<path d="M4770 4485 c0 -8 2 -15 4 -15 2 0 6 7 10 15 3 8 1 15 -4 15 -6 0 -10
-7 -10 -15z"/>
<path d="M4911 4443 c0 -25 1 -26 9 -8 12 27 12 35 0 35 -5 0 -10 -12 -9 -27z"/>
<path d="M3090 4439 c0 -5 5 -7 10 -4 6 3 10 8 10 11 0 2 -4 4 -10 4 -5 0 -10
-5 -10 -11z"/>
<path d="M5057 4436 c-3 -8 0 -19 7 -25 11 -9 15 -6 18 14 6 27 -16 36 -25 11z"/>
<path d="M5420 4404 c0 -42 5 -43 24 -5 14 27 14 29 -4 34 -17 4 -20 0 -20
-29z"/>
<path d="M4140 4281 c0 -24 3 -32 9 -22 5 8 14 10 22 6 9 -6 11 -3 6 9 -4 10
-7 23 -7 30 0 7 -7 13 -15 13 -11 0 -15 -11 -15 -36z"/>
<path d="M5420 4273 c0 -36 3 -43 20 -43 24 0 24 5 0 50 l-19 35 -1 -42z"/>
<path d="M5080 4242 c0 -10 -5 -23 -12 -30 -8 -8 -9 -12 -1 -12 6 0 19 7 28
16 12 12 13 19 4 30 -15 18 -19 18 -19 -4z"/>
<path d="M4102 3962 c-9 -7 -12 -57 -10 -218 l3 -209 25 0 25 0 3 209 c2 204
0 226 -28 226 -3 0 -11 -4 -18 -8z"/>
<path d="M4504 3896 c-39 -17 -61 -67 -46 -101 6 -13 29 -36 52 -50 64 -41 47
-75 -21 -40 -26 14 -30 14 -35 1 -14 -35 0 -61 38 -70 56 -14 115 7 134 47 21
45 6 80 -46 107 -28 14 -40 26 -38 38 4 18 6 18 49 7 23 -6 27 -3 33 21 4 15
3 31 -1 35 -16 16 -88 19 -119 5z"/>
<path d="M1837 3892 c-3 -4 -4 -61 -2 -127 l3 -120 85 -3 c78 -3 86 -1 92 18
10 31 -2 40 -56 40 -42 0 -49 3 -49 20 0 17 7 20 40 20 38 0 40 2 40 29 0 27
-3 30 -37 33 -26 2 -39 8 -41 20 -3 14 6 17 50 20 50 3 53 5 56 31 l3 27 -90
0 c-49 0 -92 -3 -94 -8z"/>
<path d="M2136 3841 c-3 -4 -5 -52 -4 -105 l2 -96 33 0 c26 0 33 4 33 19 0 33
17 33 41 0 19 -26 26 -30 52 -25 17 3 33 8 35 11 2 2 -12 26 -31 53 l-36 48
29 45 c17 24 30 47 30 52 0 4 -14 7 -31 7 -21 0 -37 -8 -51 -25 -11 -14 -24
-25 -29 -25 -5 0 -9 11 -9 25 0 21 -5 25 -29 25 -17 0 -32 -4 -35 -9z"/>
<path d="M2447 3843 c-4 -3 -7 -51 -7 -105 l0 -98 35 0 35 0 0 105 0 105 -28
0 c-16 0 -32 -3 -35 -7z"/>
<path d="M2650 3741 l0 -111 53 0 c74 0 118 25 136 76 16 45 10 80 -18 115
-16 20 -30 24 -95 27 l-76 4 0 -111z m120 24 c13 -34 -3 -75 -30 -75 -26 0
-34 20 -26 65 8 43 41 49 56 10z"/>
<path d="M2989 3821 c-24 -25 -29 -38 -29 -80 0 -73 30 -106 99 -106 42 0 55
5 78 28 24 23 28 36 28 83 0 49 -4 59 -28 80 -42 36 -109 34 -148 -5z m105
-64 c7 -19 7 -34 0 -45 -14 -22 -44 -28 -55 -10 -11 16 -12 72 -2 82 15 15 48
0 57 -27z"/>
<path d="M3270 3840 c0 -6 11 -28 25 -50 14 -22 25 -45 25 -52 0 -8 -11 -30
-25 -50 -14 -20 -25 -39 -25 -42 0 -17 64 -4 81 17 l20 22 15 -22 c12 -17 26
-23 56 -23 l40 0 -19 33 c-11 17 -26 42 -33 54 -12 19 -11 26 13 62 34 52 34
61 -3 61 -19 0 -33 -7 -40 -20 -6 -11 -17 -20 -25 -20 -8 0 -19 9 -25 20 -8
14 -21 20 -45 20 -19 0 -35 -5 -35 -10z"/>
<path d="M3590 3839 c0 -5 11 -27 25 -47 14 -20 25 -44 25 -52 0 -8 -11 -32
-25 -52 -14 -20 -25 -39 -25 -42 0 -17 64 -4 81 17 l20 22 15 -22 c12 -17 26
-23 56 -23 l39 0 -31 54 -31 55 26 40 c32 52 32 61 -5 61 -19 0 -33 -7 -40
-20 -6 -11 -17 -20 -25 -20 -8 0 -19 9 -25 20 -8 14 -21 20 -45 20 -19 0 -35
-5 -35 -11z"/>
<path d="M4787 3830 c-75 -59 -37 -200 54 -200 65 0 119 51 119 113 0 35 -24
83 -49 97 -33 17 -96 12 -124 -10z m93 -70 c4 -14 3 -36 -1 -48 -10 -25 -44
-30 -53 -6 -8 21 -8 69 1 78 15 15 47 0 53 -24z"/>
<path d="M5080 3745 l0 -105 35 0 c28 0 35 4 35 20 0 27 14 25 34 -5 18 -28
24 -29 61 -15 l26 10 -22 31 c-21 30 -21 33 -5 59 22 38 20 57 -9 85 -21 22
-33 25 -90 25 l-65 0 0 -105z m91 22 c-13 -13 -26 -3 -16 12 3 6 11 8 17 5 6
-4 6 -10 -1 -17z"/>
<path d="M5387 3843 c-3 -5 -4 -51 -2 -103 l3 -95 76 -3 c75 -3 76 -3 76 23 0
21 -5 25 -29 25 -36 0 -50 17 -19 22 32 4 40 58 9 58 -12 0 -21 5 -21 10 0 6
14 10 30 10 27 0 30 3 30 30 l0 30 -74 0 c-41 0 -77 -3 -79 -7z"/>
<path d="M5667 3843 c-4 -3 -7 -42 -7 -85 0 -64 3 -81 20 -98 25 -25 61 -34
105 -26 52 10 65 37 65 134 l0 83 -32 -3 -33 -3 0 -67 c0 -69 -12 -95 -39 -85
-13 5 -16 23 -16 82 l0 75 -28 0 c-16 0 -32 -3 -35 -7z"/>
<path d="M3208 3020 c-21 -21 -28 -37 -25 -51 5 -18 2 -19 -24 -14 -22 5 -31
2 -35 -10 -4 -9 5 -76 19 -148 41 -214 41 -201 12 -256 -26 -53 -32 -76 -15
-66 13 8 13 7 -10 -60 -26 -74 -26 -93 -3 -74 15 13 16 11 10 -26 -4 -22 -10
-71 -14 -109 -5 -56 -4 -68 8 -64 10 3 18 -17 31 -80 9 -47 24 -92 32 -101 13
-12 16 -13 16 -1 0 8 12 -9 26 -38 14 -28 39 -63 56 -77 30 -25 55 -34 43 -15
-3 6 -2 10 4 10 10 0 25 -40 37 -100 7 -39 43 -114 83 -174 24 -36 26 -48 26
-140 -1 -119 -20 -210 -42 -202 -8 3 -38 9 -66 12 -49 5 -62 1 -232 -76 -159
-73 -187 -89 -241 -142 l-61 -59 -44 24 c-24 13 -89 49 -145 79 -55 31 -145
79 -200 108 -54 29 -178 96 -274 150 -96 53 -195 107 -220 119 -49 25 -72 38
-330 181 -96 53 -211 117 -255 140 -395 213 -460 253 -511 315 -64 78 -86 189
-97 485 -2 41 -4 -54 -5 -212 l-2 -286 83 -45 c45 -24 235 -133 422 -242 187
-108 585 -339 885 -512 300 -174 588 -341 640 -373 343 -205 1044 -601 1058
-597 17 4 396 222 1697 977 1074 623 1275 739 1328 766 l47 24 0 387 c0 212
-2 384 -4 382 -2 -2 -7 -96 -10 -209 -12 -368 -17 -407 -64 -494 -27 -49 -111
-132 -160 -157 -15 -8 -72 -39 -127 -70 -55 -31 -158 -87 -230 -124 -71 -37
-134 -71 -140 -76 -10 -7 -365 -202 -495 -271 -159 -85 -317 -172 -352 -195
-21 -12 -40 -23 -44 -23 -3 0 -26 -12 -52 -27 -26 -16 -49 -28 -52 -29 -18 -2
-60 -29 -60 -37 0 -6 -2 -8 -6 -5 -3 3 -22 -4 -43 -16 -154 -86 -273 -147
-277 -143 -16 15 -55 160 -68 249 -9 57 -20 104 -26 106 -22 8 -71 55 -85 83
-35 66 -13 60 70 -20 84 -80 117 -101 95 -61 -13 25 -14 25 53 -6 74 -33 159
-35 224 -3 37 18 43 24 28 29 -16 6 -14 9 14 29 30 22 131 154 131 173 0 5 -9
4 -19 -2 -35 -18 -40 -11 -22 33 39 89 36 95 -18 35 -67 -73 -143 -113 -205
-106 -86 10 -137 69 -203 236 -21 52 -50 108 -66 123 -37 38 -297 168 -427
214 -145 52 -260 113 -360 192 -79 63 -83 67 -60 74 l25 6 -30 7 c-113 28
-167 57 -223 121 -22 25 -45 59 -51 75 l-10 30 46 0 46 0 -75 73 c-53 51 -80
86 -93 120 -15 40 -26 52 -65 72 -55 28 -108 84 -151 160 -17 30 -33 55 -36
55 -2 0 -18 -14 -35 -30z m470 -1432 c12 -15 32 -189 32 -284 0 -64 -20 -134
-39 -134 -5 0 -32 5 -59 11 l-49 12 13 61 c8 33 19 134 26 223 l12 161 26 -18
c15 -11 32 -25 38 -32z m371 -46 c6 -21 19 -79 30 -130 12 -63 28 -105 47
-133 31 -45 111 -120 155 -146 30 -18 33 -31 23 -95 -6 -35 -8 -36 -33 -27
-14 6 -64 9 -111 8 -81 -3 -91 0 -200 43 -64 26 -128 50 -143 53 -15 4 -27 8
-27 9 0 0 9 25 20 54 13 34 20 78 21 125 1 87 14 245 21 252 3 3 21 -2 41 -10
50 -21 60 -20 47 4 -9 17 -6 20 18 24 75 11 81 9 91 -31z m415 -256 c34 -19
71 -45 82 -58 41 -44 144 -275 144 -322 0 -15 -9 -27 -25 -34 -28 -13 -61 -4
-191 50 l-72 29 14 52 c20 74 29 177 16 177 -14 0 -42 74 -42 110 0 17 3 30 7
30 3 0 34 -15 67 -34z"/>
</g>
</svg>
